<?xml version="1.0" encoding="UTF-8" standalone="no" ?>
<svg
    width="512"
    height="512"
    viewBox="0 0 100 100"
    fill="none"
    version="1.1"
    id="svg2"
    sodipodi:docname="pdf.svg"
    inkscape:version="1.4.3 (0d15f75042, 2025-12-25)"
    xml:space="preserve"
    xmlns:inkscape="http://www.inkscape.org/namespaces/inkscape"
    xmlns:sodipodi="http://sodipodi.sourceforge.net/DTD/sodipodi-0.dtd"
    xmlns="http://www.w3.org/2000/svg"
    xmlns:svg="http://www.w3.org/2000/svg"
><defs id="defs2" /><sodipodi:namedview
        id="namedview2"
        pagecolor="#ffffff"
        bordercolor="#111111"
        borderopacity="1"
        inkscape:showpageshadow="0"
        inkscape:pageopacity="0"
        inkscape:pagecheckerboard="1"
        inkscape:deskcolor="#d1d1d1"
        inkscape:zoom="0.93083979"
        inkscape:cx="361.50152"
        inkscape:cy="228.82563"
        inkscape:window-width="1276"
        inkscape:window-height="1397"
        inkscape:window-x="20"
        inkscape:window-y="20"
        inkscape:window-maximized="0"
        inkscape:current-layer="svg2"
    /><path
        style="fill:#000000"
        d="m 13.913901,99.75795 c -1.816086,-0.573889 -2.9643,-1.501169 -3.825469,-3.089379 l -0.6667185,-1.2296 V 50.028815 4.6186589 l 0.526291,-0.997548 C 10.727641,2.1433619 11.316171,1.5350019 12.683161,0.79379792 l 1.23074,-0.66732698 25.683595,-0.05134 25.68359,-0.05134 12.648601,12.65167506 12.6486,12.651676 -0.0509,34.958261 -0.051,34.958264 -0.51168,1.09111 c -0.650401,1.38691 -1.69779,2.4343 -3.08471,3.084713 l -1.09111,0.51168 -35.546871,0.0368 c -28.187899,0.0292 -35.70861,-0.0143 -36.328124,-0.21004 z M 84.324056,63.310065 v -30.46875 h -7.52776 c -6.10547,0 -7.81052,-0.0584 -9.02427,-0.30911 -4.42967,-0.914973 -7.78903,-3.897949 -9.38879,-8.33686 l -0.5091,-1.412624 -0.0695,-8.251953 -0.0695,-8.2519531 H 36.654556 15.574057 V 50.028815 93.778811 h 34.374999 34.375 z M 28.13005,86.865733 c -1.185795,-0.563865 -2.556312,-1.86379 -3.038572,-2.88206 -1.075678,-2.271252 0.406901,-4.944687 4.100062,-7.393367 2.055508,-1.362864 6.071853,-3.310605 9.453186,-4.584352 l 2.7887,-1.050506 0.84094,-1.897503 c 1.18399,-2.671575 2.83283,-7.025402 3.62177,-9.56343 l 0.67,-2.155394 -1.1335,-1.946169 c -1.477469,-2.536742 -2.793909,-5.645881 -3.311929,-7.822039 -0.57588,-2.419261 -0.4728,-5.026367 0.25448,-6.436658 1.0263,-1.99011 3.29261,-3.410128 5.44246,-3.410128 1.46199,0 2.61646,0.772662 3.3597,2.248589 1.1807,2.344628 0.87136,8.367629 -0.76132,14.823269 l -0.48942,1.935138 0.6873,0.997928 c 1.15305,1.674165 3.89662,4.986637 5.8163,7.022351 l 1.81963,1.929618 2.31338,-0.318456 c 8.26191,-1.137323 12.98068,-0.230205 14.10405,2.711313 1.05917,2.773384 -1.53462,6.322484 -4.99165,6.830106 -2.57915,0.378716 -7.12135,-1.653921 -11.10589,-4.969888 l -1.17655,-0.979134 -1.91542,0.393087 c -2.39585,0.491682 -8.03375,1.946374 -10.16153,2.62188 l -1.60549,0.509693 -0.71435,1.311706 c -3.5853,6.583477 -6.64403,10.33138 -9.644651,11.817752 -1.752277,0.867999 -3.731464,0.965279 -5.221686,0.256654 z m 4.145982,-3.222639 c 0.538626,-0.308959 1.625892,-1.242415 2.416147,-2.074348 1.447017,-1.523331 4.677497,-6.192695 4.358057,-6.299174 -0.0945,-0.03149 -0.86693,0.240624 -1.71656,0.604701 -5.411605,2.318949 -9.454932,5.083271 -9.454932,6.464104 0,0.312978 0.275628,0.708426 0.816406,1.171312 1.07079,0.916556 2.145753,0.956603 3.580882,0.133405 z M 70.558636,72.40736 c 0.58371,-0.382456 1.37318,-1.894149 1.21054,-2.317965 -0.0619,-0.161354 -0.58027,-0.456326 -1.15189,-0.655491 -0.87569,-0.305108 -1.59282,-0.358321 -4.55495,-0.337988 -1.93359,0.01327 -3.71573,0.103974 -3.96031,0.201559 -0.41003,0.1636 -0.32407,0.257001 1.10296,1.198435 3.30268,2.178835 5.91088,2.85679 7.35365,1.91145 z m -20.21895,-4.024937 c 2.20214,-0.559856 4.03618,-1.04692 4.07563,-1.082365 0.0394,-0.03544 -0.6364,-0.83783 -1.5019,-1.783078 -0.86549,-0.945249 -2.14189,-2.447045 -2.83644,-3.337326 l -1.26281,-1.618692 -0.53412,1.618692 c -0.52027,1.57671 -1.87198,5.149231 -2.52493,6.673279 l -0.32462,0.757712 0.45264,-0.105151 c 0.24895,-0.05783 2.2544,-0.563215 4.45655,-1.123071 z m -1.86678,-19.67788 c 0.36071,-2.380253 0.37604,-6.10796 0.0291,-7.074166 -0.31017,-0.863816 -1.04549,-0.981529 -2.14589,-0.343521 -1.23111,0.713793 -1.52535,1.470027 -1.42554,3.663834 0.096,2.110176 0.4813,3.419783 1.8388,6.25 l 0.88996,1.855469 0.25465,-1.171875 c 0.14006,-0.644532 0.39158,-2.075415 0.55893,-3.179741 z m 25.10821,-31.586742 -9.4719,-9.4735141 -0.0555,6.6903111 c -0.036,4.346322 0.019,6.998241 0.1572,7.569217 0.29147,1.204645 1.37256,2.783054 2.38174,3.47739 1.68389,1.158541 1.93809,1.19058 9.52748,1.200786 l 6.93284,0.0093 z"
        id="path1"
    /></svg>
